<mxfile host="app.diagrams.net" agent="Mozilla/5.0 (Windows NT 10.0; Win64; x64) AppleWebKit/537.36 (KHTML, like Gecko) Chrome/131.0.0.0 Safari/537.36" version="25.0.0">
  <diagram name="Page-1" id="ImdZqAJpYmRF4UzFTsQg">
    <mxGraphModel dx="1249" dy="643" grid="0" gridSize="10" guides="1" tooltips="1" connect="1" arrows="1" fold="1" page="0" pageScale="1" pageWidth="827" pageHeight="1169" math="0" shadow="0">
      <root>
        <mxCell id="0" />
        <mxCell id="1" parent="0" />
        <mxCell id="JS2oRaqrxA1gEG2xHLw7-1" value="Login to the system" style="whiteSpace=wrap;strokeWidth=2;" vertex="1" parent="1">
          <mxGeometry x="287" y="20" width="200" height="48" as="geometry" />
        </mxCell>
        <mxCell id="JS2oRaqrxA1gEG2xHLw7-2" value="Select Manage Services function" style="whiteSpace=wrap;strokeWidth=2;" vertex="1" parent="1">
          <mxGeometry x="274" y="118" width="226" height="66" as="geometry" />
        </mxCell>
        <mxCell id="JS2oRaqrxA1gEG2xHLw7-3" value="View service list" style="whiteSpace=wrap;strokeWidth=2;" vertex="1" parent="1">
          <mxGeometry x="298" y="234" width="177" height="48" as="geometry" />
        </mxCell>
        <mxCell id="JS2oRaqrxA1gEG2xHLw7-4" value="What action to perform?" style="rhombus;strokeWidth=2;whiteSpace=wrap;" vertex="1" parent="1">
          <mxGeometry x="275" y="333" width="225" height="225" as="geometry" />
        </mxCell>
        <mxCell id="JS2oRaqrxA1gEG2xHLw7-5" value="Add a service" style="whiteSpace=wrap;strokeWidth=2;" vertex="1" parent="1">
          <mxGeometry x="45" y="706" width="157" height="48" as="geometry" />
        </mxCell>
        <mxCell id="JS2oRaqrxA1gEG2xHLw7-6" value="Enter service details" style="whiteSpace=wrap;strokeWidth=2;" vertex="1" parent="1">
          <mxGeometry x="20" y="804" width="207" height="48" as="geometry" />
        </mxCell>
        <mxCell id="JS2oRaqrxA1gEG2xHLw7-7" value="Save the service" style="whiteSpace=wrap;strokeWidth=2;" vertex="1" parent="1">
          <mxGeometry x="167" y="903" width="177" height="48" as="geometry" />
        </mxCell>
        <mxCell id="JS2oRaqrxA1gEG2xHLw7-8" value="Edit a service" style="whiteSpace=wrap;strokeWidth=2;" vertex="1" parent="1">
          <mxGeometry x="308" y="607" width="157" height="48" as="geometry" />
        </mxCell>
        <mxCell id="JS2oRaqrxA1gEG2xHLw7-9" value="Select the service to edit" style="whiteSpace=wrap;strokeWidth=2;" vertex="1" parent="1">
          <mxGeometry x="266" y="706" width="241" height="48" as="geometry" />
        </mxCell>
        <mxCell id="JS2oRaqrxA1gEG2xHLw7-10" value="Update service details" style="whiteSpace=wrap;strokeWidth=2;" vertex="1" parent="1">
          <mxGeometry x="277" y="804" width="220" height="48" as="geometry" />
        </mxCell>
        <mxCell id="JS2oRaqrxA1gEG2xHLw7-11" value="Delete a service" style="whiteSpace=wrap;strokeWidth=2;" vertex="1" parent="1">
          <mxGeometry x="547" y="804" width="176" height="48" as="geometry" />
        </mxCell>
        <mxCell id="JS2oRaqrxA1gEG2xHLw7-12" value="Confirm deletion" style="whiteSpace=wrap;strokeWidth=2;" vertex="1" parent="1">
          <mxGeometry x="544" y="903" width="181" height="48" as="geometry" />
        </mxCell>
        <mxCell id="JS2oRaqrxA1gEG2xHLw7-13" value="Complete" style="whiteSpace=wrap;strokeWidth=2;" vertex="1" parent="1">
          <mxGeometry x="315" y="1001" width="129" height="48" as="geometry" />
        </mxCell>
        <mxCell id="JS2oRaqrxA1gEG2xHLw7-14" value="" style="curved=1;startArrow=none;endArrow=block;exitX=0.5;exitY=1.01;entryX=0.5;entryY=0.01;rounded=0;fontSize=12;startSize=8;endSize=8;" edge="1" parent="1" source="JS2oRaqrxA1gEG2xHLw7-1" target="JS2oRaqrxA1gEG2xHLw7-2">
          <mxGeometry relative="1" as="geometry">
            <Array as="points" />
          </mxGeometry>
        </mxCell>
        <mxCell id="JS2oRaqrxA1gEG2xHLw7-15" value="" style="curved=1;startArrow=none;endArrow=block;exitX=0.5;exitY=1.01;entryX=0.5;entryY=0.01;rounded=0;fontSize=12;startSize=8;endSize=8;" edge="1" parent="1" source="JS2oRaqrxA1gEG2xHLw7-2" target="JS2oRaqrxA1gEG2xHLw7-3">
          <mxGeometry relative="1" as="geometry">
            <Array as="points" />
          </mxGeometry>
        </mxCell>
        <mxCell id="JS2oRaqrxA1gEG2xHLw7-16" value="" style="curved=1;startArrow=none;endArrow=block;exitX=0.5;exitY=1.02;entryX=0.5;entryY=0;rounded=0;fontSize=12;startSize=8;endSize=8;" edge="1" parent="1" source="JS2oRaqrxA1gEG2xHLw7-3" target="JS2oRaqrxA1gEG2xHLw7-4">
          <mxGeometry relative="1" as="geometry">
            <Array as="points" />
          </mxGeometry>
        </mxCell>
        <mxCell id="JS2oRaqrxA1gEG2xHLw7-17" value="" style="curved=1;startArrow=none;endArrow=block;exitX=0;exitY=0.76;entryX=0.5;entryY=-0.01;rounded=0;fontSize=12;startSize=8;endSize=8;" edge="1" parent="1" source="JS2oRaqrxA1gEG2xHLw7-4" target="JS2oRaqrxA1gEG2xHLw7-5">
          <mxGeometry relative="1" as="geometry">
            <Array as="points">
              <mxPoint x="123" y="582" />
            </Array>
          </mxGeometry>
        </mxCell>
        <mxCell id="JS2oRaqrxA1gEG2xHLw7-18" value="" style="curved=1;startArrow=none;endArrow=block;exitX=0.5;exitY=1;entryX=0.5;entryY=0;rounded=0;fontSize=12;startSize=8;endSize=8;" edge="1" parent="1" source="JS2oRaqrxA1gEG2xHLw7-5" target="JS2oRaqrxA1gEG2xHLw7-6">
          <mxGeometry relative="1" as="geometry">
            <Array as="points" />
          </mxGeometry>
        </mxCell>
        <mxCell id="JS2oRaqrxA1gEG2xHLw7-19" value="" style="curved=1;startArrow=none;endArrow=block;exitX=0.5;exitY=1.01;entryX=0.13;entryY=-0.01;rounded=0;fontSize=12;startSize=8;endSize=8;" edge="1" parent="1" source="JS2oRaqrxA1gEG2xHLw7-6" target="JS2oRaqrxA1gEG2xHLw7-7">
          <mxGeometry relative="1" as="geometry">
            <Array as="points">
              <mxPoint x="123" y="878" />
            </Array>
          </mxGeometry>
        </mxCell>
        <mxCell id="JS2oRaqrxA1gEG2xHLw7-20" value="" style="curved=1;startArrow=none;endArrow=block;exitX=0.5;exitY=1;entryX=0.5;entryY=0.01;rounded=0;fontSize=12;startSize=8;endSize=8;" edge="1" parent="1" source="JS2oRaqrxA1gEG2xHLw7-4" target="JS2oRaqrxA1gEG2xHLw7-8">
          <mxGeometry relative="1" as="geometry">
            <Array as="points" />
          </mxGeometry>
        </mxCell>
        <mxCell id="JS2oRaqrxA1gEG2xHLw7-21" value="" style="curved=1;startArrow=none;endArrow=block;exitX=0.5;exitY=1.02;entryX=0.5;entryY=-0.01;rounded=0;fontSize=12;startSize=8;endSize=8;" edge="1" parent="1" source="JS2oRaqrxA1gEG2xHLw7-8" target="JS2oRaqrxA1gEG2xHLw7-9">
          <mxGeometry relative="1" as="geometry">
            <Array as="points" />
          </mxGeometry>
        </mxCell>
        <mxCell id="JS2oRaqrxA1gEG2xHLw7-22" value="" style="curved=1;startArrow=none;endArrow=block;exitX=0.5;exitY=1;entryX=0.5;entryY=0;rounded=0;fontSize=12;startSize=8;endSize=8;" edge="1" parent="1" source="JS2oRaqrxA1gEG2xHLw7-9" target="JS2oRaqrxA1gEG2xHLw7-10">
          <mxGeometry relative="1" as="geometry">
            <Array as="points" />
          </mxGeometry>
        </mxCell>
        <mxCell id="JS2oRaqrxA1gEG2xHLw7-23" value="" style="curved=1;startArrow=none;endArrow=block;exitX=0.5;exitY=1.01;entryX=0.86;entryY=-0.01;rounded=0;fontSize=12;startSize=8;endSize=8;" edge="1" parent="1" source="JS2oRaqrxA1gEG2xHLw7-10" target="JS2oRaqrxA1gEG2xHLw7-7">
          <mxGeometry relative="1" as="geometry">
            <Array as="points">
              <mxPoint x="387" y="878" />
            </Array>
          </mxGeometry>
        </mxCell>
        <mxCell id="JS2oRaqrxA1gEG2xHLw7-24" value="" style="curved=1;startArrow=none;endArrow=block;exitX=1;exitY=0.77;entryX=0.5;entryY=0;rounded=0;fontSize=12;startSize=8;endSize=8;" edge="1" parent="1" source="JS2oRaqrxA1gEG2xHLw7-4" target="JS2oRaqrxA1gEG2xHLw7-11">
          <mxGeometry relative="1" as="geometry">
            <Array as="points">
              <mxPoint x="635" y="582" />
            </Array>
          </mxGeometry>
        </mxCell>
        <mxCell id="JS2oRaqrxA1gEG2xHLw7-25" value="" style="curved=1;startArrow=none;endArrow=block;exitX=0.5;exitY=1.01;entryX=0.5;entryY=-0.01;rounded=0;fontSize=12;startSize=8;endSize=8;" edge="1" parent="1" source="JS2oRaqrxA1gEG2xHLw7-11" target="JS2oRaqrxA1gEG2xHLw7-12">
          <mxGeometry relative="1" as="geometry">
            <Array as="points" />
          </mxGeometry>
        </mxCell>
        <mxCell id="JS2oRaqrxA1gEG2xHLw7-26" value="" style="curved=1;startArrow=none;endArrow=block;exitX=0.5;exitY=1;entryX=0.02;entryY=0;rounded=0;fontSize=12;startSize=8;endSize=8;" edge="1" parent="1" source="JS2oRaqrxA1gEG2xHLw7-7" target="JS2oRaqrxA1gEG2xHLw7-13">
          <mxGeometry relative="1" as="geometry">
            <Array as="points">
              <mxPoint x="255" y="976" />
            </Array>
          </mxGeometry>
        </mxCell>
        <mxCell id="JS2oRaqrxA1gEG2xHLw7-27" value="" style="curved=1;startArrow=none;endArrow=block;exitX=0.5;exitY=1;entryX=1;entryY=0.24;rounded=0;fontSize=12;startSize=8;endSize=8;" edge="1" parent="1" source="JS2oRaqrxA1gEG2xHLw7-12" target="JS2oRaqrxA1gEG2xHLw7-13">
          <mxGeometry relative="1" as="geometry">
            <Array as="points">
              <mxPoint x="635" y="976" />
            </Array>
          </mxGeometry>
        </mxCell>
      </root>
    </mxGraphModel>
  </diagram>
</mxfile>
